HIERARCHY
ROOT Hips
{
	OFFSET -0.179506 -22.333345 2.821913
	CHANNELS 6 Xposition Yposition Zposition Zrotation Yrotation Xrotation 
	JOINT LeftUpLeg
	{
		OFFSET 6.951974 -9.140623 -0.681533
		CHANNELS 3 Zrotation Yrotation Xrotation
		JOINT LeftLeg
		{
			OFFSET 3.427654 -37.519855 -0.449580
			CHANNELS 3 Zrotation Yrotation Xrotation
			JOINT LeftFoot
			{
				OFFSET -1.359570 -39.796059 -4.369333
				CHANNELS 3 Zrotation Yrotation Xrotation
				JOINT LeftToe
				{
					OFFSET 2.635814 -5.579078 11.928840
					CHANNELS 3 Zrotation Yrotation Xrotation
					End Site
					{
						OFFSET 0.000000 0.000000 0.000000
					}
				}
			}
		}
	}
	JOINT RightUpLeg
	{
		OFFSET -6.767048 -9.052170 -0.431982
		CHANNELS 3 Zrotation Yrotation Xrotation
		JOINT RightLeg
		{
			OFFSET -3.829005 -38.256897 -0.885003
			CHANNELS 3 Zrotation Yrotation Xrotation
			JOINT RightFoot
			{
				OFFSET 1.577377 -39.841461 -4.231180
				CHANNELS 3 Zrotation Yrotation Xrotation
				JOINT RightToe
				{
					OFFSET -2.537174 -4.814398 12.334795
					CHANNELS 3 Zrotation Yrotation Xrotation
					End Site
					{
						OFFSET 0.000000 0.000000 0.000000
					}
				}
			}
		}
	}
	JOINT Spine
	{
		OFFSET -0.253288 10.896323 -2.669631
		CHANNELS 3 Zrotation Yrotation Xrotation
		JOINT Spine1
		{
			OFFSET 0.548704 13.518043 0.109247
			CHANNELS 3 Zrotation Yrotation Xrotation
			JOINT Spine2
			{
				OFFSET 0.145701 5.292222 2.542457
				CHANNELS 3 Zrotation Yrotation Xrotation
				JOINT Neck
				{
					OFFSET -0.277840 21.387037 -4.285703
					CHANNELS 3 Zrotation Yrotation Xrotation
					JOINT Head
					{
						OFFSET 0.515184 6.496960 5.134897
						CHANNELS 3 Zrotation Yrotation Xrotation
						End Site
						{
							OFFSET 0.000000 0.000000 0.000000
						}
					}
				}
				JOINT LeftShoulder
				{
					OFFSET 7.884473 12.174932 -3.408961
					CHANNELS 3 Zrotation Yrotation Xrotation
					JOINT LeftArm
					{
						OFFSET 9.097692 3.046888 -0.886815
						CHANNELS 3 Zrotation Yrotation Xrotation
						JOINT LeftForeArm
						{
							OFFSET 25.961220 -1.277207 -2.745643
							CHANNELS 3 Zrotation Yrotation Xrotation
							JOINT LeftHand
							{
								OFFSET 24.923361 0.898606 -0.117091
								CHANNELS 3 Zrotation Yrotation Xrotation
								End Site
								{
									OFFSET 0.000000 0.000000 0.000000
								}
							}
						}
					}
				}
				JOINT RightShoulder
				{
					OFFSET -8.175920 11.883285 -3.861528
					CHANNELS 3 Zrotation Yrotation Xrotation
					JOINT RightArm
					{
						OFFSET -9.601238 3.255117 -0.914307
						CHANNELS 3 Zrotation Yrotation Xrotation
						JOINT RightForeArm
						{
							OFFSET -25.374195 -1.332924 -2.140099
							CHANNELS 3 Zrotation Yrotation Xrotation
							JOINT RightHand
							{
								OFFSET -25.529810 0.777228 -0.555919
								CHANNELS 3 Zrotation Yrotation Xrotation
								End Site
								{
									OFFSET 0.000000 0.000000 0.000000
								}
							}
						}
					}
				}
			}
		}
	}
}
MOTION
Frames: 9
Frame Time: 0.033333
-8.300016 158.434296 83.613213 -121.216394 7.570517 82.924262 34.722654 5.005385 -9.404317 -1.937166 -1.580628 55.439525 -1.440770 13.801002 -18.051299 nan nan nan -18.732143 -14.780006 -22.971563 0.786431 -19.985950 44.334849 3.674446 -3.590898 -9.620655 nan nan nan -9.644993 2.076406 9.393441 9.053682 -5.519463 10.434273 2.977884 -0.753366 -5.982395 4.524628 -11.556919 18.365570 8.811160 -17.794634 9.679106 -12.742032 -10.397250 2.923385 -48.558993 -47.952717 19.605688 142.393146 -66.662669 -117.175921 7.270706 -17.394341 -11.897916 18.877446 8.076378 -0.825182 31.071687 17.154060 -5.207835 -89.849531 59.247624 -70.691078 -6.543483 7.982041 -9.096834 
-8.145340 160.416504 83.479683 -121.188619 7.288482 82.627958 34.098163 4.563585 -10.184698 -3.543530 -1.981487 57.033927 -1.681193 13.125824 -19.839653 nan nan nan -18.348124 -14.323697 -22.207063 1.575083 -18.985323 44.969646 3.138256 -3.484551 -12.905044 nan nan nan -9.466660 2.333518 9.958174 8.723267 -5.472057 10.155391 2.812314 -0.785137 -5.928533 4.000285 -11.709737 18.350378 9.214542 -17.502200 9.491864 -13.004006 -9.931650 2.925029 -48.982464 -47.654104 20.025872 143.038315 -67.016776 -117.801759 6.891233 -17.609396 -12.151210 18.464453 8.218577 -0.625165 31.105953 17.880816 -5.341358 -89.460390 58.975796 -70.137930 -6.947933 8.029871 -9.831494 
-8.032640 162.348892 83.298943 -121.124169 7.014198 82.356269 33.307171 4.442666 -11.233154 -4.684976 -1.800576 58.867942 -1.633036 13.142721 -21.632587 nan nan nan -18.035418 -13.866157 -21.345691 2.511645 -18.250711 45.369868 2.426492 -3.659934 -16.017450 nan nan nan -9.114405 2.792991 10.023772 8.273451 -5.394095 10.297136 2.556234 -0.785998 -5.861953 3.772667 -12.293585 18.117672 9.204649 -17.357563 9.948415 -13.287222 -10.174731 3.113101 -49.142448 -47.058757 20.323280 143.137657 -67.318718 -118.017381 6.233823 -17.531566 -12.470530 18.144225 8.621666 -0.830099 31.044350 17.827373 -5.376203 -89.126934 58.424337 -69.877957 -7.433657 7.999591 -10.554946 
-7.932307 164.230896 83.094254 -121.109870 6.821679 82.157792 32.465705 4.487770 -12.486395 -5.535179 -1.128135 60.844263 -1.613172 13.141001 -23.548682 nan nan nan -17.504222 -13.602629 -20.608294 3.225965 -17.800778 45.715052 1.604002 -4.123108 -18.982132 nan nan nan -8.541440 3.193810 10.005675 7.746518 -5.286794 10.089491 2.277322 -0.784508 -5.308858 3.685821 -12.904449 17.785891 9.010946 -17.215997 10.353483 -13.623847 -10.371984 2.981915 -49.429660 -46.078918 20.762002 143.545118 -67.777717 -118.396992 5.713548 -17.304568 -12.608260 17.782878 9.095007 -1.234681 31.000069 17.743608 -5.414921 -88.653746 57.904401 -69.608517 -7.844971 8.018862 -11.154448 
-7.840223 166.089966 82.877617 -121.212784 6.628592 81.866271 31.595058 4.568290 -13.630201 -6.227900 -0.093211 62.736399 -1.395364 13.024970 -25.341162 nan nan nan -16.780429 -13.686791 -19.992310 3.527081 -17.399231 46.365053 0.620653 -4.850468 -21.649181 nan nan nan -7.981224 3.603173 10.160011 7.272016 -5.059255 9.782223 2.071515 -0.779487 -4.643457 3.589492 -13.485350 17.199030 8.673468 -17.108485 10.790283 -14.157607 -10.389616 2.806652 -49.478979 -44.957355 20.953584 144.667416 -68.560500 -119.228002 5.479145 -17.249498 -12.574007 17.338494 9.490618 -1.723832 30.989267 17.812324 -5.418288 -88.145235 57.352233 -69.222816 -8.455867 7.966635 -11.506143 
-7.774982 167.937027 82.658875 -121.454370 6.349763 81.488535 30.651160 4.831023 -14.589563 -6.786606 1.219890 64.392732 -0.898530 12.951125 -26.917451 nan nan nan -16.125844 -13.987613 -19.543601 3.527603 -17.061506 47.500303 -0.294654 -5.584428 -23.737932 nan nan nan -7.551455 4.095791 10.436104 6.833872 -4.608769 9.788629 1.844419 -0.775780 -4.382215 3.776907 -14.229093 16.278447 8.038453 -17.101833 11.699906 -14.657643 -10.268641 2.712185 -49.601928 -43.855085 21.290417 146.174730 -69.565790 -120.151076 5.381395 -17.090888 -11.904964 17.046067 9.537472 -2.478686 30.923170 17.932644 -5.209808 -87.457675 56.880776 -68.688638 -8.941971 7.820817 -11.444987 
-7.710443 169.748856 82.484955 -121.746942 5.992493 81.170156 29.537262 5.253271 -15.507622 -7.114853 2.785154 65.660428 -0.225296 13.061026 -28.657261 nan nan nan -15.645181 -14.251477 -19.403568 3.327648 -16.889675 49.131890 -0.756607 -6.061359 -25.114900 nan nan nan -7.222604 4.628193 10.693587 6.451040 -4.056363 9.858568 1.592859 -0.789737 -4.220525 4.039290 -15.062975 15.595333 7.499264 -16.966103 12.442217 -15.195880 -10.018459 2.559370 -49.998303 -42.649201 21.848900 148.013171 -70.662125 -121.720579 5.482667 -16.760148 -10.947476 16.968653 9.319309 -3.250999 30.649284 18.136884 -5.152247 -86.833531 56.807388 -68.515639 -9.414537 7.688240 -11.085617 
-7.637638 171.490814 82.374908 -122.080842 5.603599 80.976533 28.229910 5.768060 -16.492091 -7.136727 4.530015 66.575300 0.559287 13.175273 -30.228344 nan nan nan -15.280192 -14.247279 -19.561823 3.087953 -16.832333 50.976086 -0.669261 -6.316043 -25.966813 nan nan nan -6.999206 5.075062 10.783534 6.121891 -3.572681 9.974521 1.332287 -0.627452 -4.005865 4.251179 -15.853216 15.292832 7.312970 -16.763517 12.613468 -15.868775 -9.615798 2.238063 -50.507104 -41.300148 22.562885 149.626648 -71.749985 -123.505824 5.539721 -16.610602 -10.524196 17.066077 9.073718 -3.627545 30.220004 18.513370 -5.270587 -86.444407 56.676293 -68.657768 -10.093789 7.727653 -10.903097 
-7.541668 173.166031 82.331108 -122.459286 5.266038 80.924396 26.831879 6.422090 -17.580683 -7.086549 6.291366 67.200299 1.142393 13.036353 -31.374631 nan nan nan -14.907396 -13.970386 -19.888897 2.853575 -17.044435 52.632908 -0.195389 -6.446355 -26.411157 nan nan nan -6.810957 5.351392 10.828396 5.790096 -3.251671 10.117094 1.015449 -0.196732 -3.946989 4.518155 -16.571123 15.345965 7.400240 -16.608489 12.301073 -16.508263 -9.031147 1.925876 -50.920484 -39.936224 23.341347 151.192566 -72.813825 -125.224526 4.929956 -16.626091 -10.566507 17.344783 8.971415 -3.624594 29.787952 18.857841 -5.375664 -86.283103 56.264587 -68.872337 -10.795329 7.839491 -10.733695 
